<?xml version="1.0" encoding="UTF-8"?>
<svg id="Layer_2" data-name="Layer 2" xmlns="http://www.w3.org/2000/svg" viewBox="0 0 158.35 40.09">
  <defs>
    <style>
      .cls-1 {
        fill: #0e0e0e;
      }
    </style>
  </defs>
  <g id="Layer_1-2" data-name="Layer 1">
    <g id="Layer_1-2" data-name="Layer 1-2">
      <path class="cls-1" d="M39.51,23.45c-.69,0-1.69,.1-3.01,.28-2.11,.34-4.37,.79-6.77,1.33-2.4,.55-4.81,1.11-7.22,1.68-2.41,.58-4.54,1.03-6.38,1.37-1.19,.2-2.06,.31-2.59,.33h-.06c.11-.11,.45-.33,1.01-.65,1.88-1.13,4.91-2.67,9.09-4.61,4.18-1.95,7.31-3.58,9.39-4.9,.05-.03,.16-.09,.33-.19,.17-.1,.31-.18,.43-.26,.12-.08,.27-.18,.44-.31,.17-.13,.31-.25,.41-.37,.1-.12,.21-.26,.31-.4,.1-.14,.15-.29,.16-.43s-.04-.3-.12-.45c-.04-.09-.09-.16-.17-.22-.08-.05-.16-.1-.25-.13-.09-.03-.17-.06-.23-.09-.06-.03-.15-.04-.27-.04-.12,0-.2,0-.26-.01-.06,0-.21,0-.46,.02-1.11,.04-2.93,.29-5.46,.76-2.47,.48-6.17,1.27-11.09,2.36-4.92,1.09-8.61,1.87-11.07,2.33-1.81,.33-3.12,.53-3.93,.62-.3,.01-.48,.02-.51,.03,.03-.04,.19-.15,.47-.31,1.6-.97,3.78-2.05,6.53-3.25,2.2-.97,5.29-2.24,9.28-3.8,3.99-1.56,6.88-2.72,8.67-3.49,.87-.4,1.57-.73,2.08-.99,.27-.1,.48-.3,.62-.6,.14-.29,.01-.53-.38-.71-.42-.23-1.29-.42-2.6-.56-.9-.11-2.62-.28-5.16-.5-1.77-.1-3.18-.11-4.31-.09-.24,0-.48-.03-.7-.12-2.25-.9-2.83-2.88-3-7.1h-.1c-.2,6.31-1.46,7.59-7.77,7.88v.1c6.08,.19,7.5,1.38,7.84,7.11-1.01,.4-1.92,.77-2.73,1.1-1.95,.8-3.83,1.66-5.65,2.57-1.19,.57-2.23,1.11-3.12,1.63-1.12,.65-1.44,1.23-.97,1.72,.04,.09,.12,.15,.26,.19,.14,.03,.23,.06,.26,.09,.03,.02,.13,.04,.28,.05,.16,.01,.25,.01,.29,0,.04,0,.12-.01,.26-.02,.13,0,.22,0,.26-.02,.44-.02,.87-.05,1.31-.11,.43-.06,.93-.13,1.49-.23,.56-.1,.97-.17,1.22-.22,.25-.05,.75-.15,1.49-.3,.74-.15,1.17-.23,1.28-.25,1.65-.34,4.69-.99,9.13-1.95,4.44-.96,7.86-1.67,10.28-2.12,.15-.03,.45-.08,.9-.15,.45-.08,.77-.14,.96-.18,.19-.04,.49-.1,.88-.17,.39-.07,.71-.11,.96-.13,.25-.02,.54-.04,.88-.06,.34-.02,.67-.04,.97-.05h.09s-.11,.08-.23,.2c-.51,.4-1.33,.9-2.45,1.52-1.82,1.04-4.49,2.41-8,4.11-3.51,1.7-6.07,2.98-7.67,3.85-1.39,.76-2.29,1.33-2.7,1.73-.31,.3-.42,.63-.32,.98,.1,.35,.36,.54,.79,.58,.21,.02,.43,.03,.64,.03,.21,0,.45-.02,.71-.06,.26-.05,.45-.07,.58-.08,.12-.01,.36-.05,.7-.12,.34-.07,.55-.11,.63-.12,2.11-.38,5.42-1.13,9.93-2.25,4.51-1.12,7.98-1.88,10.39-2.27,1.6-.28,2.69-.38,3.26-.3,.04,0,.11,.01,.21,.05-.1,.19-.33,.44-.68,.75-.37,.33-.8,.68-1.29,1.06-.49,.37-.92,.68-1.28,.91-.36,.23-.84,.55-1.42,.94-.59,.39-1.02,.66-1.3,.83-2.93,1.96-5.05,3.55-6.36,4.75-2.7,2.42-3.52,4.32-2.45,5.69,.12,.15,.32,.34,.59,.56,.27,.22,.42,.31,.45,.27-.25-.25-.45-.44-.59-.59-.14-.15-.24-.26-.29-.33-.84-1.32,.02-3.07,2.59-5.26,1.29-1.09,3.24-2.47,5.84-4.16,2.6-1.69,4.27-2.79,5.01-3.32,.04,0,.14-.07,.31-.2,.17-.13,.32-.23,.45-.32,.13-.09,.29-.21,.47-.35,.19-.15,.33-.29,.43-.43,.1-.14,.2-.29,.29-.44,.09-.15,.13-.3,.12-.45s-.08-.29-.22-.42c-.21-.21-.63-.33-1.27-.36h0ZM15.7,8.67c.24-.1,.49-.15,.74-.17,.37-.03,.8-.05,1.29-.06,3.24-.07,5.4-.08,6.46-.06,1.81,.13,3.04,.31,3.7,.55,.04,0,.06,0,.07,0,.01,0,.03,.02,.05,.04-.09,.03-.44,.2-1.04,.5-.87,.4-2.2,.95-3.98,1.66-.59,.24-2.43,.94-5.5,2.11-1.72,.66-3.27,1.26-4.64,1.8,.16-3.7,.77-5.49,2.85-6.37h0Zm-2.57,19.74l.03,.02s-.05,0-.03-.02Z"/>
    </g>
    <g>
      <path class="cls-1" d="M47.58,14.3h2.63v1.98c.3-.68,.81-1.22,1.52-1.62,.71-.41,1.5-.61,2.37-.61,.95,0,1.79,.21,2.52,.64,.73,.43,1.32,1.03,1.76,1.81,.45-.78,1.06-1.38,1.83-1.81,.77-.43,1.65-.64,2.62-.64s1.93,.23,2.72,.7c.79,.46,1.41,1.11,1.86,1.95s.66,1.78,.66,2.85v9.38h-2.63v-9.38c0-.93-.29-1.69-.87-2.27-.58-.59-1.32-.88-2.24-.88s-1.71,.29-2.31,.88c-.59,.58-.89,1.34-.89,2.27v9.38h-2.63v-9.34c0-.95-.29-1.71-.85-2.31-.57-.59-1.31-.89-2.23-.89s-1.72,.3-2.32,.89c-.6,.59-.9,1.36-.9,2.31v9.34h-2.63V14.3Z"/>
      <path class="cls-1" d="M74.01,28.21c-1.16-.64-2.07-1.53-2.71-2.67-.65-1.14-.97-2.45-.97-3.94s.33-2.78,.98-3.93c.65-1.15,1.56-2.04,2.72-2.68,1.16-.64,2.49-.96,3.97-.96s2.81,.32,3.97,.96,2.07,1.53,2.72,2.68,.98,2.46,.98,3.93-.32,2.8-.97,3.94c-.65,1.14-1.55,2.03-2.71,2.67s-2.49,.96-3.99,.96-2.83-.32-3.99-.96Zm-.33-3.89c.42,.79,1,1.4,1.76,1.83,.75,.43,1.6,.65,2.57,.65s1.81-.22,2.57-.65c.75-.44,1.33-1.05,1.76-1.83,.42-.79,.63-1.69,.63-2.71s-.21-1.92-.63-2.71c-.42-.79-1.01-1.4-1.76-1.83-.75-.43-1.61-.65-2.57-.65s-1.82,.22-2.57,.65c-.75,.44-1.34,1.05-1.76,1.83-.42,.79-.63,1.69-.63,2.71s.21,1.92,.63,2.71Z"/>
      <path class="cls-1" d="M88.38,14.3h2.63v2.25c.28-.67,.82-1.26,1.62-1.75,.79-.5,1.75-.74,2.88-.74s2.19,.27,3.12,.81c.92,.54,1.65,1.3,2.18,2.28,.53,.98,.8,2.1,.8,3.36v8.42h-2.63v-8.44c0-1.22-.37-2.2-1.1-2.96-.74-.76-1.7-1.14-2.88-1.14s-2.15,.38-2.88,1.14c-.74,.76-1.1,1.74-1.1,2.96v8.44h-2.63V14.3Z"/>
      <path class="cls-1" d="M107.38,28.21c-1.09-.64-1.95-1.53-2.58-2.69-.62-1.15-.93-2.47-.93-3.94s.31-2.78,.93-3.92c.62-1.14,1.48-2.03,2.58-2.67,1.1-.64,2.32-.96,3.67-.96,1.12,0,2.14,.23,3.05,.68,.91,.45,1.65,1.08,2.24,1.89v-2.32h2.63v14.63h-2.63v-2.34c-.58,.83-1.33,1.46-2.24,1.91-.91,.45-1.92,.67-3.05,.67-1.35,0-2.57-.32-3.67-.96Zm-.17-3.9c.41,.8,.99,1.41,1.74,1.85,.75,.43,1.6,.65,2.54,.65s1.81-.22,2.55-.65c.74-.44,1.32-1.05,1.74-1.85,.42-.79,.63-1.7,.63-2.72s-.21-1.92-.63-2.7c-.42-.78-1-1.39-1.74-1.82-.74-.43-1.59-.65-2.55-.65s-1.79,.22-2.54,.65c-.75,.44-1.33,1.04-1.74,1.82-.41,.78-.62,1.68-.62,2.7s.21,1.93,.62,2.72Z"/>
      <path class="cls-1" d="M122.56,10.92h2.63V28.92h-2.63V10.92Z"/>
      <path class="cls-1" d="M141.58,28.92h-2.63v-2.25c-.29,.67-.83,1.26-1.62,1.75-.8,.5-1.75,.74-2.88,.74s-2.19-.27-3.12-.81-1.65-1.3-2.18-2.28c-.53-.98-.8-2.1-.8-3.36V14.3h2.63v8.44c0,1.21,.37,2.2,1.1,2.96,.73,.76,1.7,1.14,2.88,1.14s2.15-.38,2.88-1.14c.73-.76,1.1-1.74,1.1-2.96V14.3h2.63v14.63Z"/>
      <path class="cls-1" d="M149.41,21.32l-5.36-7.02h3.15l3.78,4.84,3.76-4.84h3.15l-5.33,7.02,5.78,7.61h-3.15l-4.21-5.45-4.23,5.45h-3.15l5.81-7.61Z"/>
    </g>
  </g>
</svg>